# xmcd
#
# Track frame offsets:
#	150
#	11840
#	24180
#	36032
#	48625
#	59737
#	70787
#	79685
#	90030
#	104397
#	114597
#	125907
#	137182
#	148275
#
# Disc length: 2117 seconds
#
# Revision: 0
# Processed by: cddbd v1.4PL0 Copyright (c) Steve Scherf et al.
# Submitted via: dBpowerAMP V4.0
#
DISCID=c508430e
DTITLE=Patsy Cline - Crazy - Disk 3
DYEAR=2000
DGENRE=Country
TTITLE0=In Care Of The Blues
TTITLE1=A Poor Man's Roses
TTITLE2=Today, Tomorrow And Forever
TTITLE3=Fingerprints
TTITLE4=A Stranger In My Arms
TTITLE5=Don't Ever Leave Me
TTITLE6=Try Again
TTITLE7=Too Many Secrets
TTITLE8=Then You'll Know
TTITLE9=Three Cigarettes In An Ashtray
TTITLE10=That Wonderful Someone
TTITLE11=Hungry For Love
TTITLE12=I Can't Forget
TTITLE13=I Don't Wanta
EXTD=Patsy Cline - Crazy - 3CD Box
EXTT0=
EXTT1=
EXTT2=
EXTT3=
EXTT4=
EXTT5=
EXTT6=
EXTT7=
EXTT8=
EXTT9=
EXTT10=
EXTT11=
EXTT12=
EXTT13=
PLAYORDER=
